<?xml version="1.0" standalone="no"?>
<!DOCTYPE svg PUBLIC "-//W3C//DTD SVG 20010904//EN"
 "http://www.w3.org/TR/2001/REC-SVG-20010904/DTD/svg10.dtd">
<svg version="1.0" xmlns="http://www.w3.org/2000/svg"
 width="215.000000pt" height="234.000000pt" viewBox="0 0 215.000000 234.000000"
 preserveAspectRatio="xMidYMid meet">

<g transform="translate(0.000000,234.000000) scale(0.100000,-0.100000)"
fill="#000000" stroke="none">
<path d="M51 2296 l-43 -44 5 -334 c7 -430 32 -618 119 -888 138 -425 428
-771 818 -974 l106 -55 49 23 c160 74 360 213 499 346 286 274 446 597 512
1031 19 124 30 601 19 803 l-7 136 -1017 0 -1017 0 -43 -44z m1993 -233 c19
-517 -53 -952 -208 -1262 -147 -291 -400 -542 -698 -692 l-80 -40 -86 47
c-427 230 -688 566 -808 1037 -55 217 -66 332 -71 730 l-5 367 975 0 975 0 6
-187z"/>
<path d="M1566 2091 c-15 -16 -34 -46 -41 -67 -8 -22 -14 -31 -15 -21 0 9 -4
17 -9 17 -17 0 -62 -55 -68 -82 -3 -15 -10 -26 -16 -25 -23 4 -16 -32 15 -79
43 -64 151 -146 187 -142 17 2 25 8 24 18 -2 10 10 21 32 29 41 15 65 54 65
107 0 35 -1 36 -17 21 -17 -14 -18 -12 -20 33 -2 26 -8 61 -14 76 -10 27 -11
28 -24 11 -12 -16 -14 -13 -29 29 -9 26 -16 60 -16 76 0 36 -19 36 -54 -1z
m48 -85 c16 -66 16 -77 3 -102 -16 -30 -48 -63 -82 -83 -18 -11 -18 -11 5 -5
45 12 88 52 106 99 20 54 34 44 34 -26 0 -47 -11 -69 -45 -87 -20 -11 -20 -11
1 -12 12 0 33 9 48 21 l26 20 0 -20 c0 -27 -54 -61 -97 -61 -37 0 -106 49
-140 99 -27 40 -30 97 -6 123 21 23 32 23 26 0 -2 -11 3 -36 11 -57 9 -20 13
-42 9 -48 -3 -6 -1 -7 5 -3 8 5 10 27 6 64 -5 52 -3 62 25 105 17 26 34 47 39
47 5 0 17 -33 26 -74z"/>
<path d="M622 2035 c-107 -61 -226 -175 -268 -258 -35 -66 12 -75 101 -19 118
75 238 205 251 271 6 28 4 31 -17 31 -13 0 -43 -11 -67 -25z m34 -64 c-14 -20
-43 -54 -64 -74 l-39 -38 -6 43 c-8 56 8 78 75 112 46 23 53 24 56 11 2 -9 -8
-33 -22 -54z"/>
<path d="M691 1932 c-42 -65 -136 -151 -221 -203 l-65 -39 35 0 c96 0 204 -56
351 -180 40 -35 223 -212 406 -393 244 -242 336 -328 348 -323 14 5 13 11 -12
40 -15 18 -114 134 -219 257 -515 606 -545 648 -578 834 l-11 59 -34 -52z
m-33 -203 c29 -16 98 -75 153 -131 97 -97 670 -723 698 -763 8 -11 -140 136
-330 326 -394 396 -494 479 -634 535 l-40 15 28 25 c37 31 61 30 125 -7z"/>
<path d="M1330 1867 c0 -61 145 -205 245 -243 51 -19 60 -16 51 21 -6 22 -9
23 -26 13 -26 -16 -68 4 -137 67 -66 58 -94 97 -96 132 -3 37 -37 46 -37 10z"/>
<path d="M1305 1784 c-13 -91 -53 -162 -164 -289 -66 -76 -65 -73 -51 -95 7
-12 31 6 117 91 59 57 132 124 161 148 l52 43 -39 44 c-21 24 -45 58 -54 76
l-15 31 -7 -49z"/>
<path d="M1475 1603 c-102 -42 -353 -238 -332 -259 4 -4 28 13 54 37 123 114
257 195 344 206 l41 6 -32 13 c-18 8 -33 14 -34 13 0 0 -19 -7 -41 -16z"/>
<path d="M840 1164 c-146 -159 -147 -161 -136 -171 5 -4 73 59 152 141 103
106 141 152 132 158 -7 4 -15 8 -18 8 -3 0 -62 -61 -130 -136z"/>
<path d="M875 1104 c-82 -80 -143 -143 -135 -141 16 3 297 267 299 280 3 20
-26 -4 -164 -139z"/>
<path d="M646 991 c-8 -12 40 -68 64 -76 41 -13 40 8 -2 45 -46 42 -53 45 -62
31z"/>
<path d="M550 839 c-156 -169 -67 -139 98 33 31 33 32 35 14 51 -18 16 -23 12
-112 -84z"/>
<path d="M1557 778 c-25 -27 -12 -37 14 -11 12 11 17 23 13 25 -5 3 -17 -4
-27 -14z"/>
<path d="M1581 748 c-13 -16 -21 -32 -17 -35 9 -9 56 26 56 42 0 25 -15 23
-39 -7z"/>
</g>
</svg>
